<svg width="192" height="192" viewBox="0 0 192 192" xmlns="http://www.w3.org/2000/svg">
  <!-- Background -->
  <rect width="192" height="192" rx="24" fill="#1a1a2e"/>
  
  <!-- Dashboard grid pattern -->
  <g transform="translate(24, 24)">
    <!-- Top row -->
    <rect x="0" y="0" width="42" height="42" rx="8" fill="#e94560"/>
    <rect x="52" y="0" width="42" height="42" rx="8" fill="#533483"/>
    <rect x="104" y="0" width="42" height="42" rx="8" fill="#0f3460"/>
    
    <!-- Middle row -->
    <rect x="0" y="52" width="42" height="42" rx="8" fill="#0f3460"/>
    <rect x="52" y="52" width="42" height="42" rx="8" fill="#e94560"/>
    <rect x="104" y="52" width="42" height="42" rx="8" fill="#533483"/>
    
    <!-- Bottom row -->
    <rect x="0" y="104" width="42" height="42" rx="8" fill="#533483"/>
    <rect x="52" y="104" width="42" height="42" rx="8" fill="#0f3460"/>
    <rect x="104" y="104" width="42" height="42" rx="8" fill="#e94560"/>
  </g>
  
  <!-- Central icon -->
  <circle cx="96" cy="96" r="20" fill="#ffffff" opacity="0.9"/>
  <path d="M86 86 L96 96 L106 86 M96 96 L96 106" stroke="#1a1a2e" stroke-width="3" stroke-linecap="round" fill="none"/>
</svg>